<svg width="23" height="23" viewBox="0 0 23 23" fill="none" xmlns="http://www.w3.org/2000/svg">
<path d="M16.2644 10.4834C16.0868 10.4834 15.9111 10.5037 15.7387 10.5439C15.6601 8.02244 13.9134 6 11.7776 6C9.81344 6 8.15155 7.73097 7.85999 10.0065C6.27643 10.0526 5 11.6014 5 13.4984C5 15.4245 6.31553 16.9914 7.93255 16.9914H10.386C10.5715 16.9914 10.7219 16.8123 10.7219 16.5913C10.7219 16.3703 10.5715 16.1912 10.386 16.1912H7.93255C6.68595 16.1912 5.67178 14.9833 5.67178 13.4984C5.67178 12.0136 6.68599 10.8056 7.93255 10.8056C7.99377 10.8056 8.05853 10.8092 8.13045 10.8166L8.47082 10.8517L8.49451 10.4458C8.61369 8.4015 10.0558 6.80016 11.7776 6.80016C13.5928 6.80016 15.0697 8.55929 15.0697 10.7215C15.0697 10.8209 15.0657 10.9271 15.0575 11.0463L15.0135 11.6847L15.5145 11.4517C15.7544 11.3402 16.0067 11.2836 16.2645 11.2836C17.4025 11.2836 18.3283 12.3864 18.3283 13.7418C18.3283 15.0972 17.4025 16.1999 16.2645 16.1999C16.2346 16.1999 15.3416 16.1978 14.4522 16.1956C13.5693 16.1935 12.69 16.1914 12.6608 16.1914C12.4518 16.1914 12.3425 16.0714 12.3359 15.835V11.5163L12.7004 12.0319C12.8199 12.201 13.0318 12.2227 13.1737 12.0803C13.3156 11.9381 13.3338 11.6857 13.2143 11.5166L12.4065 10.3736C12.3048 10.2297 12.1585 10.1471 12.0053 10.1471C11.8521 10.1471 11.7059 10.2297 11.6042 10.3736L10.7964 11.5166C10.6769 11.6857 10.6951 11.9381 10.837 12.0803C10.9 12.1435 10.9768 12.1744 11.0531 12.1744C11.1489 12.1744 11.2438 12.1259 11.3103 12.0319L11.6641 11.5313V15.8389C11.6641 16.3022 11.9296 16.9915 12.6608 16.9915C12.69 16.9915 13.5686 16.9936 14.4507 16.9957C15.3408 16.9979 16.2345 17 16.2645 17C17.7729 17 19 15.5384 19 13.7417C19 11.945 17.7728 10.4834 16.2644 10.4834Z" fill="#000002"/>
</svg>
